<svg width="30" height="30" viewBox="0 0 30 30" fill="none" xmlns="http://www.w3.org/2000/svg">
<path d="M15 1.875C18.481 1.875 21.8194 3.25781 24.2808 5.71922C26.7422 8.18064 28.125 11.519 28.125 15C28.125 18.481 26.7422 21.8194 24.2808 24.2808C21.8194 26.7422 18.481 28.125 15 28.125C11.519 28.125 8.18064 26.7422 5.71922 24.2808C3.25781 21.8194 1.875 18.481 1.875 15C1.875 11.519 3.25781 8.18064 5.71922 5.71922C8.18064 3.25781 11.519 1.875 15 1.875ZM13.365 17.5894L10.4494 14.6719C10.3449 14.5674 10.2208 14.4844 10.0842 14.4279C9.94763 14.3713 9.80126 14.3422 9.65344 14.3422C9.50562 14.3422 9.35925 14.3713 9.22268 14.4279C9.08611 14.4844 8.96202 14.5674 8.8575 14.6719C8.6464 14.883 8.52781 15.1693 8.52781 15.4678C8.52781 15.7663 8.6464 16.0527 8.8575 16.2638L12.57 19.9762C12.6742 20.0813 12.7982 20.1647 12.9348 20.2216C13.0714 20.2785 13.218 20.3078 13.3659 20.3078C13.5139 20.3078 13.6604 20.2785 13.797 20.2216C13.9337 20.1647 14.0576 20.0813 14.1619 19.9762L21.8494 12.2869C21.9553 12.1828 22.0396 12.0588 22.0973 11.9219C22.1551 11.7851 22.1851 11.6382 22.1858 11.4897C22.1865 11.3412 22.1578 11.194 22.1013 11.0567C22.0449 10.9193 21.9618 10.7945 21.8568 10.6895C21.7519 10.5844 21.6271 10.5011 21.4899 10.4445C21.3526 10.3879 21.2054 10.359 21.0569 10.3595C20.9084 10.36 20.7615 10.3899 20.6246 10.4475C20.4877 10.5051 20.3636 10.5892 20.2594 10.695L13.365 17.5894Z" fill="#180938"/>
</svg>
