<svg width="51" height="51" viewBox="0 0 51 51" fill="none" xmlns="http://www.w3.org/2000/svg">
<path d="M11.75 19.875C11.75 19.3777 11.9475 18.9008 12.2992 18.5492C12.6508 18.1975 13.1277 18 13.625 18C14.1223 18 14.5992 18.1975 14.9508 18.5492C15.3025 18.9008 15.5 19.3777 15.5 19.875C15.5 20.3723 15.3025 20.8492 14.9508 21.2008C14.5992 21.5525 14.1223 21.75 13.625 21.75C13.1277 21.75 12.6508 21.5525 12.2992 21.2008C11.9475 20.8492 11.75 20.3723 11.75 19.875ZM13.625 31.75C13.1277 31.75 12.6508 31.9475 12.2992 32.2992C11.9475 32.6508 11.75 33.1277 11.75 33.625C11.75 34.1223 11.9475 34.5992 12.2992 34.9508C12.6508 35.3025 13.1277 35.5 13.625 35.5C14.1223 35.5 14.5992 35.3025 14.9508 34.9508C15.3025 34.5992 15.5 34.1223 15.5 33.625C15.5 33.1277 15.3025 32.6508 14.9508 32.2992C14.5992 31.9475 14.1223 31.75 13.625 31.75ZM0.5 8.625C0.5 6.47012 1.35602 4.40349 2.87976 2.87976C4.40349 1.35602 6.47012 0.5 8.625 0.5H37.375C39.5299 0.5 41.5965 1.35602 43.1202 2.87976C44.644 4.40349 45.5 6.47012 45.5 8.625V23.055C43.2121 21.5884 40.5913 20.7225 37.88 20.5375C37.9878 20.2537 38.025 19.9479 37.9884 19.6465C37.9517 19.3451 37.8423 19.0571 37.6696 18.8074C37.4969 18.5576 37.266 18.3537 36.997 18.213C36.7279 18.0724 36.4286 17.9993 36.125 18H24.875C24.3777 18 23.9008 18.1975 23.5492 18.5492C23.1975 18.9008 23 19.3777 23 19.875C23 20.3723 23.1975 20.8492 23.5492 21.2008C23.9008 21.5525 24.3777 21.75 24.875 21.75H30.49C28.3018 22.6638 26.34 24.0452 24.7423 25.7975C23.1446 27.5498 21.9496 29.6304 21.2412 31.8934C20.5327 34.1564 20.328 36.547 20.6413 38.8976C20.9547 41.2481 21.7785 43.5016 23.055 45.5H8.625C6.47012 45.5 4.40349 44.644 2.87976 43.1202C1.35602 41.5965 0.5 39.5299 0.5 37.375V8.625ZM8 19.875C8 20.6137 8.14549 21.3451 8.42818 22.0276C8.71086 22.7101 9.12519 23.3301 9.64752 23.8525C10.1699 24.3748 10.7899 24.7891 11.4724 25.0718C12.1549 25.3545 12.8863 25.5 13.625 25.5C14.3637 25.5 15.0951 25.3545 15.7776 25.0718C16.4601 24.7891 17.0801 24.3748 17.6025 23.8525C18.1248 23.3301 18.5391 22.7101 18.8218 22.0276C19.1045 21.3451 19.25 20.6137 19.25 19.875C19.25 18.3832 18.6574 16.9524 17.6025 15.8975C16.5476 14.8426 15.1168 14.25 13.625 14.25C12.1332 14.25 10.7024 14.8426 9.64752 15.8975C8.59263 16.9524 8 18.3832 8 19.875ZM13.625 28C12.1332 28 10.7024 28.5926 9.64752 29.6475C8.59263 30.7024 8 32.1332 8 33.625C8 35.1168 8.59263 36.5476 9.64752 37.6025C10.7024 38.6574 12.1332 39.25 13.625 39.25C15.1168 39.25 16.5476 38.6574 17.6025 37.6025C18.6574 36.5476 19.25 35.1168 19.25 33.625C19.25 32.1332 18.6574 30.7024 17.6025 29.6475C16.5476 28.5926 15.1168 28 13.625 28ZM8 8.625C8 9.66 8.84 10.5 9.875 10.5H36.125C36.6223 10.5 37.0992 10.3025 37.4508 9.95082C37.8025 9.59919 38 9.12228 38 8.625C38 8.12772 37.8025 7.6508 37.4508 7.29917C37.0992 6.94754 36.6223 6.75 36.125 6.75H9.875C9.37772 6.75 8.9008 6.94754 8.54917 7.29917C8.19754 7.6508 8 8.12772 8 8.625ZM50.5 36.75C50.5 33.1033 49.0513 29.6059 46.4727 27.0273C43.8941 24.4487 40.3967 23 36.75 23C33.1033 23 29.6059 24.4487 27.0273 27.0273C24.4487 29.6059 23 33.1033 23 36.75C23 40.3967 24.4487 43.8941 27.0273 46.4727C29.6059 49.0513 33.1033 50.5 36.75 50.5C40.3967 50.5 43.8941 49.0513 46.4727 46.4727C49.0513 43.8941 50.5 40.3967 50.5 36.75ZM38 38L38.0025 44.2575C38.0025 44.589 37.8708 44.907 37.6364 45.1414C37.402 45.3758 37.084 45.5075 36.7525 45.5075C36.421 45.5075 36.103 45.3758 35.8686 45.1414C35.6342 44.907 35.5025 44.589 35.5025 44.2575V38H29.24C28.9085 38 28.5905 37.8683 28.3561 37.6339C28.1217 37.3995 27.99 37.0815 27.99 36.75C27.99 36.4185 28.1217 36.1005 28.3561 35.8661C28.5905 35.6317 28.9085 35.5 29.24 35.5H35.5V29.25C35.5 28.9185 35.6317 28.6005 35.8661 28.3661C36.1005 28.1317 36.4185 28 36.75 28C37.0815 28 37.3995 28.1317 37.6339 28.3661C37.8683 28.6005 38 28.9185 38 29.25V35.5H44.2425C44.574 35.5 44.892 35.6317 45.1264 35.8661C45.3608 36.1005 45.4925 36.4185 45.4925 36.75C45.4925 37.0815 45.3608 37.3995 45.1264 37.6339C44.892 37.8683 44.574 38 44.2425 38H38Z" fill="white"/>
</svg>
