<svg width="50" height="50" viewBox="0 0 50 50" fill="none" xmlns="http://www.w3.org/2000/svg">
<g clip-path="url(#clip0_30_529)">
<path d="M42.3271 9.35836C39.1396 7.92086 35.7229 6.85836 32.15 6.25419C32.1182 6.24808 32.0853 6.25202 32.0558 6.26546C32.0263 6.2789 32.0017 6.30117 31.9854 6.32919C31.5479 7.09794 31.0604 8.10003 30.7188 8.89169C26.9294 8.32552 23.0769 8.32552 19.2875 8.89169C18.907 8.01432 18.4778 7.15883 18.0021 6.32919C17.986 6.30082 17.9616 6.27805 17.9322 6.2639C17.9028 6.24976 17.8698 6.24492 17.8375 6.25003C14.2667 6.85419 10.85 7.91669 7.66044 9.35628C7.633 9.36779 7.60974 9.38741 7.59377 9.41253C1.11044 18.9438 -0.666642 28.2396 0.206275 37.4188C0.208704 37.4413 0.215682 37.463 0.226785 37.4827C0.237888 37.5024 0.252883 37.5196 0.270858 37.5334C4.05501 40.2884 8.27573 42.3871 12.7563 43.7417C12.7875 43.7513 12.8209 43.7513 12.8521 43.7416C12.8834 43.732 12.9109 43.7131 12.9313 43.6875C13.8954 42.3981 14.7498 41.0301 15.4854 39.5979C15.4957 39.5784 15.5015 39.5568 15.5027 39.5348C15.5039 39.5127 15.5003 39.4907 15.4922 39.4701C15.4841 39.4496 15.4716 39.431 15.4558 39.4157C15.4399 39.4004 15.4208 39.3886 15.4 39.3813C14.0542 38.8745 12.7502 38.2629 11.5 37.5521C11.4776 37.5393 11.4586 37.5211 11.4449 37.4991C11.4312 37.4772 11.4232 37.4522 11.4216 37.4264C11.4199 37.4006 11.4247 37.3748 11.4355 37.3512C11.4463 37.3277 11.4627 37.3073 11.4834 37.2917C11.7459 37.0979 12.0084 36.8959 12.2584 36.6938C12.2809 36.6756 12.308 36.664 12.3367 36.6604C12.3653 36.6567 12.3945 36.661 12.4209 36.6729C20.6021 40.3479 29.4625 40.3479 37.5479 36.6729C37.5744 36.6603 37.6038 36.6554 37.6329 36.6587C37.662 36.662 37.6896 36.6735 37.7125 36.6917C37.9625 36.8959 38.2229 37.0979 38.4875 37.2917C38.5084 37.3069 38.5251 37.3271 38.5362 37.3504C38.5474 37.3738 38.5525 37.3995 38.5513 37.4253C38.5501 37.4511 38.5424 37.4762 38.5291 37.4983C38.5158 37.5204 38.4972 37.5389 38.475 37.5521C37.2292 38.2688 35.9334 38.875 34.5729 39.3792C34.552 39.3868 34.533 39.3987 34.5171 39.4143C34.5012 39.4298 34.4888 39.4485 34.4807 39.4692C34.4726 39.4899 34.4691 39.5121 34.4702 39.5343C34.4714 39.5565 34.4773 39.5782 34.4875 39.5979C35.2375 41.0292 36.0959 42.3917 37.0396 43.6854C37.0592 43.712 37.0866 43.7318 37.1179 43.7423C37.1492 43.7527 37.183 43.7532 37.2146 43.7438C41.7028 42.393 45.9304 40.2933 49.7188 37.5334C49.7373 37.5204 49.7528 37.5037 49.7643 37.4843C49.7758 37.4649 49.783 37.4433 49.7854 37.4209C50.8271 26.8084 48.0396 17.5875 42.3917 9.41669C42.3778 9.39014 42.3549 9.36944 42.3271 9.35836ZM16.7084 31.8292C14.2459 31.8292 12.2146 29.6021 12.2146 26.8709C12.2146 24.1375 14.2063 21.9125 16.7084 21.9125C19.2292 21.9125 21.2417 24.1563 21.2021 26.8709C21.2021 29.6042 19.2104 31.8292 16.7084 31.8292ZM33.3229 31.8292C30.8584 31.8292 28.8292 29.6021 28.8292 26.8709C28.8292 24.1375 30.8188 21.9125 33.3229 21.9125C35.8438 21.9125 37.8563 24.1563 37.8167 26.8709C37.8167 29.6042 35.8459 31.8292 33.3229 31.8292Z" fill="#CCCCCC"/>
</g>
<defs>
<clipPath id="clip0_30_529">
<rect width="50" height="50" fill="white"/>
</clipPath>
</defs>
</svg>
