<svg width="50" height="50" viewBox="0 0 50 50" fill="none" xmlns="http://www.w3.org/2000/svg">
<path d="M49.2563 10.2854C47.5167 11.0563 45.648 11.5771 43.6834 11.8125C45.7105 10.5996 47.227 8.69057 47.9501 6.44168C46.0456 7.57291 43.9612 8.36917 41.7876 8.79585C40.3259 7.23515 38.3898 6.2007 36.2799 5.85309C34.17 5.50548 32.0044 5.86417 30.1193 6.87346C28.2342 7.88276 26.735 9.48619 25.8546 11.4348C24.9741 13.3834 24.7616 15.5682 25.2501 17.65C21.3911 17.4563 17.616 16.4532 14.1697 14.7061C10.7234 12.9589 7.68307 10.5066 5.2459 7.50835C4.41256 8.94585 3.9334 10.6125 3.9334 12.3875C3.93247 13.9854 4.32597 15.5589 5.07898 16.9682C5.83199 18.3776 6.92123 19.5793 8.25006 20.4667C6.70897 20.4176 5.20188 20.0012 3.85423 19.2521V19.3771C3.85408 21.6182 4.6293 23.7904 6.04836 25.525C7.46743 27.2596 9.44292 28.4499 11.6396 28.8938C10.21 29.2807 8.71118 29.3377 7.25631 29.0604C7.8761 30.9888 9.08339 32.6751 10.7092 33.8832C12.3349 35.0913 14.2978 35.7608 16.323 35.7979C12.8851 38.4967 8.63941 39.9606 4.26882 39.9542C3.49461 39.9544 2.72106 39.9092 1.95215 39.8188C6.38856 42.6712 11.5529 44.1851 16.8271 44.1792C34.6813 44.1792 44.4417 29.3917 44.4417 16.5667C44.4417 16.15 44.4313 15.7292 44.4126 15.3125C46.3111 13.9395 47.9499 12.2394 49.2521 10.2917L49.2563 10.2854Z" fill="#CCCCCC"/>
</svg>
